<svg xmlns="http://www.w3.org/2000/svg" width="64" height="64" viewBox="0 0 64 64" role="img" aria-label="Aeroclim">
  <defs>
    <linearGradient id="g" x1="0" y1="0" x2="1" y2="1">
      <stop offset="0" stop-color="#14b8a6"/>
      <stop offset="1" stop-color="#0f766e"/>
    </linearGradient>
  </defs>
  <rect x="6" y="6" width="52" height="52" rx="14" fill="url(#g)"/>
  <path d="M32 14c7.8 0 14 6.2 14 14 0 6.7-4.6 12.3-10.9 13.7l5.7 7.3h-6.6l-4.5-6h-6.7l-4.5 6h-6.6l6.2-7.8C21 39 18 33.8 18 28c0-7.8 6.2-14 14-14Zm0 7.2a6.8 6.8 0 1 0 0 13.6 6.8 6.8 0 0 0 0-13.6Z" fill="#ffffff" opacity="0.95"/>
</svg>
