<svg xmlns="http://www.w3.org/2000/svg" width="1200" height="800" viewBox="0 0 1200 800" role="img" aria-label="H¶pital rķgional - Lille">
  <defs>
    <linearGradient id="bg" x1="0" y1="0" x2="1" y2="1">
      <stop offset="0" stop-color="#1e40af"/>
      <stop offset="1" stop-color="#0f766e"/>
    </linearGradient>
    <filter id="s" x="-20%" y="-20%" width="140%" height="140%">
      <feDropShadow dx="0" dy="18" stdDeviation="18" flood-color="rgba(0,0,0,0.22)"/>
    </filter>
  </defs>
  <rect width="1200" height="800" fill="url(#bg)"/>
  <g opacity="0.20">
    <path d="M0 180H1200M0 360H1200M0 540H1200M0 720H1200" stroke="#fff" stroke-width="2"/>
  </g>
  <g filter="url(#s)">
    <rect x="140" y="140" width="920" height="520" rx="28" fill="rgba(255,255,255,0.14)" stroke="rgba(255,255,255,0.18)" stroke-width="2"/>
    <g transform="translate(210 210)" opacity="0.95">
      <rect x="0" y="0" width="520" height="300" rx="22" fill="rgba(255,255,255,0.16)"/>
      <rect x="560" y="0" width="280" height="300" rx="22" fill="rgba(255,255,255,0.16)"/>
      <rect x="0" y="330" width="840" height="140" rx="22" fill="rgba(255,255,255,0.16)"/>
      <g transform="translate(90 50)">
        <path d="M170 0v240" stroke="rgba(255,255,255,0.85)" stroke-width="26" stroke-linecap="round"/>
        <path d="M50 120h240" stroke="rgba(255,255,255,0.85)" stroke-width="26" stroke-linecap="round"/>
      </g>
      <g transform="translate(600 60)">
        <rect x="0" y="0" width="200" height="26" rx="13" fill="rgba(255,255,255,0.22)"/>
        <rect x="0" y="46" width="160" height="26" rx="13" fill="rgba(255,255,255,0.18)"/>
        <rect x="0" y="92" width="180" height="26" rx="13" fill="rgba(255,255,255,0.16)"/>
        <rect x="0" y="170" width="140" height="58" rx="18" fill="rgba(249,115,22,0.70)"/>
      </g>
      <g transform="translate(40 366)">
        <rect x="0" y="0" width="520" height="28" rx="14" fill="rgba(255,255,255,0.22)"/>
        <rect x="0" y="48" width="440" height="28" rx="14" fill="rgba(255,255,255,0.18)"/>
      </g>
    </g>
  </g>
  <g opacity="0.92">
    <rect x="140" y="680" width="520" height="70" rx="22" fill="rgba(255,255,255,0.14)" stroke="rgba(255,255,255,0.18)"/>
    <path d="M185 715h70" stroke="rgba(255,255,255,0.9)" stroke-width="10" stroke-linecap="round"/>
    <path d="M275 715h340" stroke="rgba(255,255,255,0.55)" stroke-width="10" stroke-linecap="round"/>
  </g>
</svg>
