<svg xmlns="http://www.w3.org/2000/svg" width="1200" height="800" viewBox="0 0 1200 800" role="img" aria-label="Centre commercial - Bordeaux">
  <defs>
    <linearGradient id="bg" x1="0" y1="0" x2="1" y2="1">
      <stop offset="0" stop-color="#0f766e"/>
      <stop offset="1" stop-color="#f97316"/>
    </linearGradient>
    <filter id="s" x="-20%" y="-20%" width="140%" height="140%">
      <feDropShadow dx="0" dy="18" stdDeviation="18" flood-color="rgba(0,0,0,0.20)"/>
    </filter>
  </defs>
  <rect width="1200" height="800" fill="url(#bg)"/>
  <g opacity="0.20">
    <path d="M0 600c200 0 260-140 520-140s320 140 680 140" fill="none" stroke="#fff" stroke-width="8" stroke-linecap="round"/>
  </g>
  <g filter="url(#s)">
    <rect x="140" y="140" width="920" height="520" rx="28" fill="rgba(255,255,255,0.14)" stroke="rgba(255,255,255,0.18)" stroke-width="2"/>
    <g transform="translate(210 210)" opacity="0.95">
      <rect x="0" y="0" width="840" height="210" rx="22" fill="rgba(255,255,255,0.16)"/>
      <rect x="0" y="240" width="520" height="230" rx="22" fill="rgba(255,255,255,0.16)"/>
      <rect x="560" y="240" width="280" height="230" rx="22" fill="rgba(255,255,255,0.16)"/>
      <g transform="translate(40 40)">
        <rect x="0" y="0" width="380" height="30" rx="15" fill="rgba(255,255,255,0.22)"/>
        <rect x="0" y="52" width="320" height="30" rx="15" fill="rgba(255,255,255,0.18)"/>
        <rect x="0" y="104" width="360" height="30" rx="15" fill="rgba(255,255,255,0.16)"/>
      </g>
      <g transform="translate(40 280)">
        <rect x="0" y="0" width="440" height="28" rx="14" fill="rgba(255,255,255,0.22)"/>
        <rect x="0" y="48" width="380" height="28" rx="14" fill="rgba(255,255,255,0.18)"/>
        <rect x="0" y="96" width="410" height="28" rx="14" fill="rgba(255,255,255,0.16)"/>
        <rect x="0" y="154" width="190" height="60" rx="20" fill="rgba(37,99,235,0.70)"/>
      </g>
      <g transform="translate(600 300)">
        <circle cx="90" cy="75" r="62" fill="rgba(249,115,22,0.65)"/>
        <path d="M60 90h60" stroke="rgba(255,255,255,0.9)" stroke-width="10" stroke-linecap="round"/>
        <path d="M90 60v60" stroke="rgba(255,255,255,0.9)" stroke-width="10" stroke-linecap="round"/>
      </g>
    </g>
  </g>
  <g opacity="0.92">
    <rect x="140" y="680" width="520" height="70" rx="22" fill="rgba(255,255,255,0.14)" stroke="rgba(255,255,255,0.18)"/>
    <path d="M185 715h70" stroke="rgba(255,255,255,0.9)" stroke-width="10" stroke-linecap="round"/>
    <path d="M275 715h340" stroke="rgba(255,255,255,0.55)" stroke-width="10" stroke-linecap="round"/>
  </g>
</svg>
