<svg xmlns="http://www.w3.org/2000/svg" width="1200" height="800" viewBox="0 0 1200 800" role="img" aria-label="Centre de donnťes - Paris">
  <defs>
    <linearGradient id="bg" x1="0" y1="0" x2="1" y2="1">
      <stop offset="0" stop-color="#0f766e"/>
      <stop offset="1" stop-color="#2563eb"/>
    </linearGradient>
    <filter id="s" x="-20%" y="-20%" width="140%" height="140%">
      <feDropShadow dx="0" dy="18" stdDeviation="18" flood-color="rgba(0,0,0,0.22)"/>
    </filter>
  </defs>
  <rect width="1200" height="800" fill="url(#bg)"/>
  <g opacity="0.18">
    <path d="M0 160H1200M0 320H1200M0 480H1200M0 640H1200" stroke="#fff" stroke-width="2"/>
    <path d="M200 0V800M400 0V800M600 0V800M800 0V800M1000 0V800" stroke="#fff" stroke-width="2"/>
  </g>
  <g filter="url(#s)">
    <rect x="140" y="140" width="920" height="520" rx="28" fill="rgba(255,255,255,0.14)" stroke="rgba(255,255,255,0.18)" stroke-width="2"/>
    <g transform="translate(210 210)" opacity="0.95">
      <rect x="0" y="0" width="360" height="220" rx="18" fill="rgba(255,255,255,0.16)"/>
      <rect x="400" y="0" width="440" height="120" rx="18" fill="rgba(255,255,255,0.16)"/>
      <rect x="400" y="150" width="440" height="280" rx="18" fill="rgba(255,255,255,0.16)"/>
      <path d="M180 220C180 290 220 330 300 330H400" fill="none" stroke="rgba(255,255,255,0.70)" stroke-width="10" stroke-linecap="round"/>
      <g transform="translate(50 40)">
        <rect x="0" y="0" width="260" height="34" rx="17" fill="rgba(255,255,255,0.22)"/>
        <rect x="0" y="52" width="220" height="34" rx="17" fill="rgba(255,255,255,0.18)"/>
        <rect x="0" y="104" width="240" height="34" rx="17" fill="rgba(255,255,255,0.16)"/>
      </g>
      <g transform="translate(440 30)">
        <circle cx="40" cy="40" r="34" fill="rgba(20,184,166,0.70)"/>
        <path d="M40 22v18l14 8" stroke="rgba(255,255,255,0.9)" stroke-width="6" stroke-linecap="round" stroke-linejoin="round"/>
      </g>
    </g>
  </g>
  <g opacity="0.92">
    <rect x="140" y="680" width="520" height="70" rx="22" fill="rgba(255,255,255,0.14)" stroke="rgba(255,255,255,0.18)"/>
    <path d="M185 715h70" stroke="rgba(255,255,255,0.9)" stroke-width="10" stroke-linecap="round"/>
    <path d="M275 715h340" stroke="rgba(255,255,255,0.55)" stroke-width="10" stroke-linecap="round"/>
  </g>
</svg>
