<svg xmlns="http://www.w3.org/2000/svg" width="1200" height="800" viewBox="0 0 1200 800" role="img" aria-label="Usine de production - Lyon">
  <defs>
    <linearGradient id="bg" x1="0" y1="0" x2="1" y2="1">
      <stop offset="0" stop-color="#115e59"/>
      <stop offset="1" stop-color="#1e40af"/>
    </linearGradient>
    <filter id="s" x="-20%" y="-20%" width="140%" height="140%">
      <feDropShadow dx="0" dy="18" stdDeviation="18" flood-color="rgba(0,0,0,0.22)"/>
    </filter>
  </defs>
  <rect width="1200" height="800" fill="url(#bg)"/>
  <g opacity="0.22">
    <path d="M0 540c220 0 220-140 440-140s220 140 440 140 220-140 320-140" fill="none" stroke="#fff" stroke-width="6"/>
    <path d="M0 620c180 0 240-110 440-110s240 110 440 110 220-110 320-110" fill="none" stroke="#fff" stroke-width="6" opacity="0.7"/>
  </g>
  <g filter="url(#s)">
    <rect x="140" y="140" width="920" height="520" rx="28" fill="rgba(255,255,255,0.14)" stroke="rgba(255,255,255,0.18)" stroke-width="2"/>
    <g transform="translate(210 210)" opacity="0.95">
      <rect x="0" y="40" width="520" height="330" rx="22" fill="rgba(255,255,255,0.16)"/>
      <rect x="560" y="40" width="280" height="190" rx="22" fill="rgba(255,255,255,0.16)"/>
      <rect x="560" y="260" width="280" height="110" rx="22" fill="rgba(255,255,255,0.16)"/>
      <g transform="translate(60 90)">
        <rect x="0" y="0" width="400" height="26" rx="13" fill="rgba(255,255,255,0.22)"/>
        <rect x="0" y="46" width="340" height="26" rx="13" fill="rgba(255,255,255,0.18)"/>
        <rect x="0" y="92" width="380" height="26" rx="13" fill="rgba(255,255,255,0.16)"/>
        <rect x="0" y="138" width="300" height="26" rx="13" fill="rgba(255,255,255,0.14)"/>
        <rect x="0" y="210" width="160" height="56" rx="18" fill="rgba(37,99,235,0.70)"/>
      </g>
      <g transform="translate(610 80)">
        <circle cx="90" cy="80" r="64" fill="rgba(20,184,166,0.65)"/>
        <path d="M60 88c26 22 52 22 80 0" fill="none" stroke="rgba(255,255,255,0.9)" stroke-width="8" stroke-linecap="round"/>
        <path d="M74 64h0" stroke="rgba(255,255,255,0.9)" stroke-width="10" stroke-linecap="round"/>
        <path d="M126 64h0" stroke="rgba(255,255,255,0.9)" stroke-width="10" stroke-linecap="round"/>
      </g>
    </g>
  </g>
  <g opacity="0.92">
    <rect x="140" y="680" width="520" height="70" rx="22" fill="rgba(255,255,255,0.14)" stroke="rgba(255,255,255,0.18)"/>
    <path d="M185 715h70" stroke="rgba(255,255,255,0.9)" stroke-width="10" stroke-linecap="round"/>
    <path d="M275 715h340" stroke="rgba(255,255,255,0.55)" stroke-width="10" stroke-linecap="round"/>
  </g>
</svg>
