<svg xmlns="http://www.w3.org/2000/svg" width="1200" height="800" viewBox="0 0 1200 800" role="img" aria-label="Site industriel - Toulouse">
  <defs>
    <linearGradient id="bg" x1="0" y1="0" x2="1" y2="1">
      <stop offset="0" stop-color="#115e59"/>
      <stop offset="1" stop-color="#2563eb"/>
    </linearGradient>
    <filter id="s" x="-20%" y="-20%" width="140%" height="140%">
      <feDropShadow dx="0" dy="18" stdDeviation="18" flood-color="rgba(0,0,0,0.22)"/>
    </filter>
  </defs>
  <rect width="1200" height="800" fill="url(#bg)"/>
  <g opacity="0.22">
    <path d="M0 560h1200" stroke="#fff" stroke-width="6"/>
    <path d="M120 560v120M260 560v120M400 560v120M540 560v120M680 560v120M820 560v120M960 560v120M1100 560v120" stroke="#fff" stroke-width="6" opacity="0.7"/>
  </g>
  <g filter="url(#s)">
    <rect x="140" y="140" width="920" height="520" rx="28" fill="rgba(255,255,255,0.14)" stroke="rgba(255,255,255,0.18)" stroke-width="2"/>
    <g transform="translate(210 210)" opacity="0.95">
      <rect x="0" y="0" width="540" height="460" rx="24" fill="rgba(255,255,255,0.16)"/>
      <rect x="580" y="0" width="260" height="220" rx="24" fill="rgba(255,255,255,0.16)"/>
      <rect x="580" y="250" width="260" height="210" rx="24" fill="rgba(255,255,255,0.16)"/>
      <g transform="translate(60 70)">
        <rect x="0" y="0" width="420" height="28" rx="14" fill="rgba(255,255,255,0.22)"/>
        <rect x="0" y="48" width="360" height="28" rx="14" fill="rgba(255,255,255,0.18)"/>
        <rect x="0" y="96" width="390" height="28" rx="14" fill="rgba(255,255,255,0.16)"/>
        <rect x="0" y="170" width="220" height="64" rx="20" fill="rgba(20,184,166,0.70)"/>
        <path d="M50 290h380" stroke="rgba(255,255,255,0.65)" stroke-width="10" stroke-linecap="round"/>
      </g>
      <g transform="translate(610 60)">
        <circle cx="100" cy="90" r="70" fill="rgba(37,99,235,0.70)"/>
        <path d="M70 98c30 24 60 24 90 0" fill="none" stroke="rgba(255,255,255,0.9)" stroke-width="10" stroke-linecap="round"/>
        <path d="M84 74h0" stroke="rgba(255,255,255,0.9)" stroke-width="12" stroke-linecap="round"/>
        <path d="M136 74h0" stroke="rgba(255,255,255,0.9)" stroke-width="12" stroke-linecap="round"/>
      </g>
    </g>
  </g>
  <g opacity="0.92">
    <rect x="140" y="680" width="520" height="70" rx="22" fill="rgba(255,255,255,0.14)" stroke="rgba(255,255,255,0.18)"/>
    <path d="M185 715h70" stroke="rgba(255,255,255,0.9)" stroke-width="10" stroke-linecap="round"/>
    <path d="M275 715h340" stroke="rgba(255,255,255,0.55)" stroke-width="10" stroke-linecap="round"/>
  </g>
</svg>
