<svg xmlns="http://www.w3.org/2000/svg" width="1200" height="800" viewBox="0 0 1200 800" role="img" aria-label="Complexe aquatique - Marseille">
  <defs>
    <linearGradient id="bg" x1="0" y1="0" x2="1" y2="1">
      <stop offset="0" stop-color="#0f766e"/>
      <stop offset="1" stop-color="#14b8a6"/>
    </linearGradient>
    <filter id="s" x="-20%" y="-20%" width="140%" height="140%">
      <feDropShadow dx="0" dy="18" stdDeviation="18" flood-color="rgba(0,0,0,0.20)"/>
    </filter>
  </defs>
  <rect width="1200" height="800" fill="url(#bg)"/>
  <g opacity="0.26">
    <path d="M0 560c120 0 120-60 240-60s120 60 240 60 120-60 240-60 120 60 240 60 120-60 240-60" fill="none" stroke="#fff" stroke-width="8" stroke-linecap="round"/>
    <path d="M0 620c140 0 140-55 280-55s140 55 280 55 140-55 280-55 140 55 280 55" fill="none" stroke="#fff" stroke-width="6" stroke-linecap="round" opacity="0.8"/>
  </g>
  <g filter="url(#s)">
    <rect x="140" y="140" width="920" height="520" rx="28" fill="rgba(255,255,255,0.14)" stroke="rgba(255,255,255,0.18)" stroke-width="2"/>
    <g transform="translate(210 210)" opacity="0.95">
      <rect x="0" y="0" width="840" height="380" rx="26" fill="rgba(255,255,255,0.16)"/>
      <path d="M50 270c90 0 90-60 180-60s90 60 180 60 90-60 180-60 90 60 180 60" fill="none" stroke="rgba(255,255,255,0.8)" stroke-width="10" stroke-linecap="round"/>
      <path d="M50 315c110 0 110-55 220-55s110 55 220 55 110-55 220-55" fill="none" stroke="rgba(255,255,255,0.62)" stroke-width="10" stroke-linecap="round"/>
      <rect x="0" y="410" width="420" height="80" rx="22" fill="rgba(255,255,255,0.16)"/>
      <rect x="440" y="410" width="400" height="80" rx="22" fill="rgba(255,255,255,0.16)"/>
      <rect x="40" y="438" width="230" height="24" rx="12" fill="rgba(255,255,255,0.22)"/>
      <rect x="480" y="438" width="250" height="24" rx="12" fill="rgba(255,255,255,0.22)"/>
    </g>
  </g>
  <g opacity="0.92">
    <rect x="140" y="680" width="520" height="70" rx="22" fill="rgba(255,255,255,0.14)" stroke="rgba(255,255,255,0.18)"/>
    <path d="M185 715h70" stroke="rgba(255,255,255,0.9)" stroke-width="10" stroke-linecap="round"/>
    <path d="M275 715h340" stroke="rgba(255,255,255,0.55)" stroke-width="10" stroke-linecap="round"/>
  </g>
</svg>
